<svg xmlns="http://www.w3.org/2000/svg" width="100%" height="100%" viewBox="0 0 19.181 11.305">
    <path id="Icon_awesome-cloud"
          d="M16.111,7.161a2.1,2.1,0,0,0,.192-.873,2.68,2.68,0,0,0-2.877-2.423,3.255,3.255,0,0,0-1.6.409A5.009,5.009,0,0,0,7.672,2.25c-2.649,0-4.8,1.807-4.8,4.038,0,.068,0,.136.006.2A3.739,3.739,0,0,0,0,9.921c0,2.006,1.933,3.634,4.316,3.634H15.344c2.119,0,3.836-1.446,3.836-3.23A3.426,3.426,0,0,0,16.111,7.161Z"
          transform="translate(0 -2.25)" fill="#f9bc2e"/>
</svg>
