<svg xmlns="http://www.w3.org/2000/svg" width="100%" height="100%" viewBox="0 0 20.841 16.67">
    <path id="Icon_awesome-code"
          d="M9.08,16.656,7.094,16.08a.391.391,0,0,1-.267-.485L11.272.285a.391.391,0,0,1,.485-.267l1.986.576a.391.391,0,0,1,.267.485L9.565,16.389a.39.39,0,0,1-.485.267ZM5.368,13l1.416-1.511a.391.391,0,0,0-.026-.56l-2.95-2.6,2.95-2.6a.388.388,0,0,0,.026-.56L5.368,3.671a.391.391,0,0,0-.554-.016L.123,8.05a.388.388,0,0,0,0,.57l4.692,4.4A.388.388,0,0,0,5.368,13Zm10.654.02,4.692-4.4a.388.388,0,0,0,0-.57l-4.692-4.4a.394.394,0,0,0-.554.016L14.052,5.179a.391.391,0,0,0,.026.56l2.95,2.6-2.95,2.6a.388.388,0,0,0-.026.56L15.469,13a.391.391,0,0,0,.554.02Z"
          transform="translate(0.002 -0.003)" fill="#6fa5a9"/>
</svg>
