<svg id="Liquid-Cheese_1_" data-name="Liquid-Cheese (1)" xmlns="http://www.w3.org/2000/svg" width="2160.135"
     height="1080" viewBox="0 0 2160.135 1080">
    <rect id="Rectangle_689" width="2160" height="1080" fill="#286166"/>
    <g id="Group_1273">
        <path id="Path_463"
              d="M656.1,714.541c-147.555-29.43-301.59-43.47-452.655-26.19-69.12,7.7-137.3,22.41-203.445,45.09v108.27H1139.13c-156.465-44.82-311.58-91.935-469.26-124.47C665.28,716.3,660.69,715.486,656.1,714.541Z"
              transform="translate(0 238.289)" fill="#295c61"/>
        <path id="Path_464"
              d="M2160,0H0V971.73a950.872,950.872,0,0,1,203.445-45.225c151.065-17.145,305.1-3.24,452.655,26.19,4.59.945,9.18,1.89,13.77,2.7,157.68,32.4,312.795,79.65,469.26,124.47H2160Z"
              fill="#2a585c"/>
        <path id="Path_465"
              d="M645.84,784.35c4.32,1.08,8.64,2.295,12.825,3.375,264.87,70.875,524.745,180.225,801.225,238.41,235.17,49.41,471.825,39.42,700.11-13.77V0H0V776.115A834.441,834.441,0,0,1,217.485,734.4C362.34,725.49,507.2,748.17,645.84,784.35Z"
              fill="#2a5357"/>
        <path id="Path_466"
              d="M0,0V579.69c75.06-24.84,153.225-36.855,231.39-37.4,138.78-1.08,274.32,30.645,404.055,73.575,4.05,1.35,7.965,2.7,12.015,4.05,247.86,83.7,493.7,197.235,759.24,259.335,252.045,58.995,508.005,46.44,753.165-17.01V0Z"
              fill="#2b4f53"/>
        <path id="Path_467"
              d="M245.43,350.19C378,358.29,504.5,397.71,625.185,447.525c3.78,1.485,7.425,3.105,11.2,4.59,230.85,96.66,462.645,213.975,717.255,280.4,268.38,69.93,544.59,55.08,806.355-19.98V0H0V382.32A652.726,652.726,0,0,1,245.43,350.19Z"
              fill="#2b4a4e"/>
        <path id="Path_468"
              d="M2160,0H0V184.005c84.105-28.215,172.4-37.125,259.47-25.92,126.36,16.335,243.675,64.4,355.455,120.96,3.51,1.755,6.885,3.51,10.4,5.265,213.84,109.485,431.6,230.715,675.4,301.32,284.175,82.35,581.58,66.15,859.41-22.41V0Z"
              fill="#274347"/>
        <path id="Path_469"
              d="M513.28,116.505C710.11,238.95,913.825,363.555,1146.7,438.75c281.61,90.99,582.255,82.08,861.165-7.155,17.28-5.535,34.29-11.34,51.435-17.415V0H288.1c75.6,28.755,146.745,68.31,215.595,110.7C506.935,112.59,510.04,114.615,513.28,116.505Z"
              transform="translate(100.835)" fill="#233c40"/>
        <path id="Path_470"
              d="M1985.7,0H498c159.435,115.83,328.725,222.075,522.18,291.87,258.93,93.42,540,100.845,803.25,28.485a1320.163,1320.163,0,0,0,162.405-56.295V0Z"
              transform="translate(174.3)" fill="#1f3639"/>
        <path id="Path_471"
              d="M1661.435,208.98a1162.173,1162.173,0,0,0,187.11-59.13c29.295-12.015,58.05-25.38,86.265-39.825V0H643.4c84.915,56.3,175.1,105.57,272.835,144.99C1152.35,240.435,1413.98,264.735,1661.435,208.98Z"
              transform="translate(225.19)" fill="#1c2f32"/>
        <path id="Path_472"
              d="M1492.47,97.74A990.743,990.743,0,0,0,1785.15,0H809.1C1021.995,95.85,1262.16,136.35,1492.47,97.74Z"
              transform="translate(283.185)" fill="#18292b"/>
    </g>
</svg>
