<svg xmlns="http://www.w3.org/2000/svg" width="33.748" height="33.749" viewBox="0 0 33.748 33.749">
    <g id="Utfällningsknapp" transform="translate(33.748 33.749) rotate(180)">
        <path id="Path_75" d="M16.873,0A16.873,16.873,0,1,1,0,16.873,16.873,16.873,0,0,1,16.873,0Z"
              transform="translate(0 0.002)" fill="#f1f1f1"/>
        <path id="Icon_ionic-ios-arrow-dropdown-circle"
              d="M0,16.873A16.871,16.871,0,0,0,16.873,33.747a17.367,17.367,0,0,0,7.8-1.908,16.666,16.666,0,0,0,9.071-14.966A16.873,16.873,0,1,0,0,16.873Zm23.452-3.521a1.572,1.572,0,0,1,2.215,0,1.547,1.547,0,0,1,.454,1.1,1.574,1.574,0,0,1-.462,1.111l-7.65,7.626a1.564,1.564,0,0,1-2.158-.049L8.088,15.405A1.566,1.566,0,0,1,10.3,13.191l6.579,6.644Z"
              transform="translate(33.748 33.747) rotate(180)" fill="#e87722"/>
    </g>
</svg>
