<svg xmlns="http://www.w3.org/2000/svg" width="100%" height="100%" viewBox="0 0 18 18">
    <path id="Icon_simple-sentiayoga"
          d="M9,15.213a13.054,13.054,0,0,1-1.48,1.063A7.7,7.7,0,0,0,9,18a7.684,7.684,0,0,0,1.481-1.723A12.818,12.818,0,0,1,9,15.213Zm4.86-2.23A8.547,8.547,0,0,1,13.5,16.8,8.526,8.526,0,0,1,10.024,15.2a6.292,6.292,0,0,0,3.836-2.219Zm-9.72,0A6.289,6.289,0,0,0,7.976,15.2,8.526,8.526,0,0,1,4.5,16.8a8.542,8.542,0,0,1-.36-3.81Zm9.253-.47a5.63,5.63,0,0,1-3.549,2.05,14.115,14.115,0,0,0,1.442-1.6,14.282,14.282,0,0,0,2.107-.448Zm-8.786,0a14.079,14.079,0,0,0,2.107.447,14.006,14.006,0,0,0,1.442,1.6,5.619,5.619,0,0,1-3.549-2.05Zm2.45-6.878A14.69,14.69,0,0,1,9,3.5a14.681,14.681,0,0,1,1.943,2.135,14.752,14.752,0,0,1,2.822.615A14.988,14.988,0,0,1,12.887,9a14.933,14.933,0,0,1,.878,2.751,14.818,14.818,0,0,1-2.822.615A14.8,14.8,0,0,1,9,14.5a14.681,14.681,0,0,1-1.943-2.135,14.752,14.752,0,0,1-2.822-.615A14.987,14.987,0,0,1,5.113,9a14.933,14.933,0,0,1-.878-2.751,14.819,14.819,0,0,1,2.821-.615Zm-5.1,5.721A7.749,7.749,0,0,0,1.206,13.5a7.719,7.719,0,0,0,2.233.421,12.622,12.622,0,0,1,.18-1.815,12.417,12.417,0,0,1-1.661-.749Zm14.085,0a12.727,12.727,0,0,1-1.662.75,12.654,12.654,0,0,1,.18,1.816,7.757,7.757,0,0,0,2.233-.421,7.685,7.685,0,0,0-.754-2.144ZM14.884,6.784A8.528,8.528,0,0,1,18,9a8.528,8.528,0,0,1-3.116,2.216,6.324,6.324,0,0,0,0-4.433Zm-11.768,0a6.324,6.324,0,0,0,0,4.433A8.533,8.533,0,0,1,0,9,8.528,8.528,0,0,1,3.116,6.784Zm11.123.165a5.643,5.643,0,0,1,0,4.1A14.177,14.177,0,0,0,13.572,9a14.177,14.177,0,0,0,.667-2.051Zm-10.478,0A14.177,14.177,0,0,0,4.428,9a14.177,14.177,0,0,0-.667,2.051,5.643,5.643,0,0,1,0-4.1ZM3.439,4.08a7.757,7.757,0,0,0-2.233.42A7.685,7.685,0,0,0,1.96,6.644a12.7,12.7,0,0,1,1.659-.75,12.654,12.654,0,0,1-.18-1.816Zm11.122,0a12.624,12.624,0,0,1-.18,1.813,12.417,12.417,0,0,1,1.661.749A7.749,7.749,0,0,0,16.793,4.5a7.719,7.719,0,0,0-2.233-.421ZM9.844,3.439a5.616,5.616,0,0,1,3.549,2.048,14.22,14.22,0,0,0-2.107-.445,14.006,14.006,0,0,0-1.442-1.6Zm-1.687,0a14.006,14.006,0,0,0-1.442,1.6,14.282,14.282,0,0,0-2.107.448,5.629,5.629,0,0,1,3.549-2.05ZM10.024,2.8A8.526,8.526,0,0,1,13.5,1.206a8.542,8.542,0,0,1,.36,3.81A6.289,6.289,0,0,0,10.024,2.8ZM4.14,5.017A8.557,8.557,0,0,1,4.5,1.2,8.526,8.526,0,0,1,7.976,2.8,6.292,6.292,0,0,0,4.14,5.014Zm6.342-3.3A7.774,7.774,0,0,0,9,0,7.684,7.684,0,0,0,7.52,1.723,12.817,12.817,0,0,1,9,2.787a13.054,13.054,0,0,1,1.481-1.063Z"
          fill="#7bac53"/>
</svg>
